<svg xmlns="http://www.w3.org/2000/svg" width="64" height="64" viewBox="-5.3 -5.3 63.6 63.6"><path fill="#fe4d4d" stroke-width="0" d="M26.5 53.615c3.643-1.066 6.002-4.447 9.145-6.575 2.653-1.795 6.196-2.446 8.046-5.06 1.84-2.6 1.108-6.185 2.063-9.224.945-3.008 2.592-5.65 3.554-8.653 1.343-4.197 5.226-8.71 3.27-12.659-1.895-3.826-8.451-1.947-11.81-4.581-3.533-2.77-3.333-10.344-7.799-10.798-4.753-.485-6.997 6.35-11.051 8.878-2.649 1.65-5.941 1.785-8.621 3.384-2.818 1.682-5.398 3.696-7.485 6.229-2.272 2.758-3.9 5.906-5.241 9.219-1.615 3.985-5.784 8.654-3.468 12.277 2.664 4.168 10.51.81 14.045 4.27 3.21 3.145.068 9.935 3.465 12.876 3.03 2.624 8.04 1.544 11.887.417"/><g data-name="Group 105"><g fill="#fff" stroke="#004cff" stroke-linecap="round" stroke-linejoin="round" stroke-width="2.12" data-name="Group 103"><path d="M34.405 43.016a1.99 1.99 0 0 0-1.99 1.99v6.7l8.689-8.689Z" data-name="Path 421"/><path d="M34.405 43.016h6.7V3.286a1.99 1.99 0 0 0-1.99-1.99H3.286a1.99 1.99 0 0 0-1.99 1.99v46.429a1.99 1.99 0 0 0 1.99 1.99h29.126v-6.7a1.99 1.99 0 0 1 1.993-1.989Z" data-name="Path 422"/></g><path fill="#fff" stroke="#004cff" stroke-miterlimit="10" stroke-width="2.12" d="M7.289 7.29h5.889v5.889H7.289z" data-name="Rectangle 96"/><path fill="#fff" stroke="#004cff" stroke-miterlimit="10" stroke-width="2.12" d="M5.98 19.413h30.438" data-name="Line 65"/><path fill="#fff" stroke="#004cff" stroke-miterlimit="10" stroke-width="2.12" d="M5.98 37.082h30.438" data-name="Line 66"/><path fill="#fff" stroke="#004cff" stroke-miterlimit="10" stroke-width="2.12" d="M5.98 25.303h30.438" data-name="Line 67"/><g data-name="Group 104"><path fill="#fff" stroke="#004cff" stroke-miterlimit="10" stroke-width="2.12" d="M5.98 31.192h30.438" data-name="Line 68"/></g></g></svg>