<svg xmlns="http://www.w3.org/2000/svg" width="41.014" height="41" viewBox="0 0 41.014 41">
            <g id="Group-28" transform="translate(0.5 0.5)">
                <path id="Fill-1" d="M76.158,14.355a4.1,4.1,0,1,0-4.1,4.134,4.118,4.118,0,0,0,4.1-4.134" transform="translate(-40.799 -6.087)" fill="#fff" stroke="#252253" stroke-width="1" fill-rule="evenodd" />
                <path id="Fill-3" d="M8.36,11.016a4.2,4.2,0,0,1,2.582,5.323,11.733,11.733,0,0,0-.323,1.145,11.735,11.735,0,0,1,11.388-9.1,4.19,4.19,0,0,0,0-8.38A20.052,20.052,0,0,0,3.155,13.415a4.147,4.147,0,0,1,5.205-2.4" transform="translate(-2 0)" fill="#fff" stroke="#252253" stroke-width="1" fill-rule="evenodd" />
                <g id="Group-7" transform="translate(0.006 19.546)">
                    <path id="Fill-5" d="M.291.4c0-.048,0-.1,0-.144,0,.048,0,.1,0,.144" transform="translate(-0.291 -0.259)" fill="#fff" stroke="#252253" stroke-width="1" fill-rule="evenodd" />
                </g>
                <g id="Group-10" transform="translate(0.006 20.682)">
                    <path id="Fill-8" d="M.292.029C.294.089.3.148.3.207.3.148.294.089.292.029" transform="translate(-0.292 -0.029)" fill="#fff" stroke="#252253" stroke-width="1" fill-rule="evenodd" />
                </g>
                <path id="Fill-11" d="M.845,42.256l.008-.05-.008.05" transform="translate(-0.617 -25.135)" fill="#fff" stroke="#252253" stroke-width="1" fill-rule="evenodd" />
                <path id="Fill-13" d="M1.051,41.047l0-.022,0,.022" transform="translate(-0.74 -24.431)" fill="#fff" stroke="#252253" stroke-width="1" fill-rule="evenodd" />
                <path id="Fill-15" d="M.677,43.51l0-.011,0,.011" transform="translate(-0.516 -25.905)" fill="#fff" stroke="#252253" stroke-width="1" fill-rule="evenodd" />
                <path id="Fill-17" d="M.409,46.056c0-.042.006-.083.009-.125,0,.042-.006.083-.009.125" transform="translate(-0.356 -27.353)" fill="#fff" stroke="#252253" stroke-width="1" fill-rule="evenodd" />
                <g id="Group-21" transform="translate(0.023 19.052)">
                    <path id="Fill-19" d="M.334.3q0-.077.008-.154Q.338.219.334.3" transform="translate(-0.334 -0.142)" fill="#fff" stroke="#252253" stroke-width="1" fill-rule="evenodd" />
                </g>
                <path id="Fill-22" d="M20.283,55.391A20.2,20.2,0,0,1,1.356,28.675a4.149,4.149,0,0,1,5.281-2.6,4.2,4.2,0,0,1,2.583,5.323A11.812,11.812,0,0,0,20.283,47.011,11.754,11.754,0,0,0,31.977,35.223a4.157,4.157,0,1,1,8.313,0A20.111,20.111,0,0,1,20.283,55.391" transform="translate(-0.276 -15.391)" fill="#fff" stroke="#252253" stroke-width="1" fill-rule="evenodd" />
                <path id="Fill-24" d="M27.211,63.032a19.8,19.8,0,0,1-14.147-5.907,4.214,4.214,0,0,1,0-5.925,4.133,4.133,0,0,1,5.878,0,11.571,11.571,0,0,0,8.269,3.453A11.754,11.754,0,0,0,38.905,42.864a4.157,4.157,0,1,1,8.313,0A20.111,20.111,0,0,1,27.211,63.032" transform="translate(-7.204 -23.032)" fill="#fff" stroke="#252253" stroke-width="1" fill-rule="evenodd" />
                <path id="Fill-26" d="M66.025,60.3a4.143,4.143,0,0,1-3.448-1.845,4.211,4.211,0,0,1,1.117-5.817,11.814,11.814,0,0,0,5.159-9.777,4.157,4.157,0,1,1,8.313,0,20.2,20.2,0,0,1-8.818,16.721,4.114,4.114,0,0,1-2.323.718" transform="translate(-37.152 -23.032)" fill="#fff" stroke="#252253" stroke-width="1" fill-rule="evenodd" />
            </g>
        </svg>