<?xml version="1.0" standalone="no"?>
<!DOCTYPE svg PUBLIC "-//W3C//DTD SVG 20010904//EN"
 "http://www.w3.org/TR/2001/REC-SVG-20010904/DTD/svg10.dtd">
<svg version="1.0" xmlns="http://www.w3.org/2000/svg"
 width="344.000000pt" height="344.000000pt" viewBox="0 0 344.000000 344.000000"
 preserveAspectRatio="xMidYMid meet">

<g transform="translate(0.000000,344.000000) scale(0.100000,-0.100000)"
fill="#5472ae" stroke="none">
<path d="M2556 2656 c-227 -103 -367 -172 -379 -187 -19 -24 -20 -67 -2 -126
6 -20 2 -22 -47 -28 -42 -5 -77 0 -173 25 -191 51 -197 52 -250 46 -60 -6
-260 -71 -295 -96 -22 -15 -34 -16 -98 -7 -60 9 -71 14 -66 26 20 45 16 79
-13 109 -15 17 -156 105 -313 195 -343 197 -345 198 -363 191 -18 -6 -537
-996 -537 -1023 0 -10 6 -23 12 -28 7 -6 155 -90 329 -187 347 -194 360 -198
409 -146 l27 29 28 -29 29 -30 -31 -42 c-77 -108 -83 -120 -83 -167 0 -27 8
-58 19 -77 24 -40 81 -75 125 -77 30 -2 38 -7 53 -41 20 -46 76 -86 130 -93
32 -4 41 -11 56 -44 22 -46 88 -89 135 -89 26 0 34 -6 46 -33 29 -70 114 -114
183 -95 36 10 89 54 110 92 10 17 14 16 67 -24 47 -36 67 -44 109 -47 73 -5
123 25 157 94 23 48 27 51 56 46 67 -11 149 43 171 112 9 27 13 30 59 31 78 1
145 48 161 112 5 22 10 24 42 18 82 -13 167 40 191 120 17 57 -1 115 -50 164
l-38 38 37 35 36 36 24 -20 c44 -36 75 -26 423 136 182 85 342 162 355 170 13
9 23 23 23 33 0 29 -466 1015 -487 1029 -15 10 -69 -11 -377 -151z m490 -253
c82 -174 179 -380 215 -458 37 -77 64 -143 60 -147 -17 -18 -632 -297 -644
-292 -8 3 -19 15 -25 27 -269 567 -402 853 -402 867 0 10 6 23 13 29 13 10
614 288 628 290 4 1 73 -142 155 -316z m-2162 137 c196 -112 286 -170 286
-181 0 -18 -434 -854 -455 -878 -11 -11 -63 15 -305 151 -161 90 -293 166
-294 169 -2 10 469 909 475 906 3 -1 135 -76 293 -167z m1001 -266 c131 -37
220 -46 300 -32 l40 7 59 -127 c33 -70 108 -230 168 -355 l107 -228 -44 -45
c-25 -24 -50 -44 -56 -44 -17 0 -125 96 -281 248 -77 76 -141 131 -147 128 -6
-4 -11 -23 -11 -43 0 -32 11 -47 98 -136 53 -55 166 -160 250 -234 84 -75 157
-146 162 -159 15 -39 -19 -99 -60 -104 -42 -6 -67 9 -190 115 -86 74 -142 115
-157 115 -23 0 -43 -26 -36 -47 2 -6 51 -53 109 -103 97 -85 104 -93 104 -128
-1 -43 -16 -67 -53 -81 -39 -15 -66 -1 -160 80 -45 39 -91 78 -103 85 -26 18
-51 9 -60 -19 -5 -17 8 -35 77 -98 76 -70 83 -79 83 -114 0 -29 -7 -43 -28
-61 -47 -41 -73 -33 -179 58 -37 32 -70 58 -73 58 -18 0 -44 -24 -44 -40 0
-11 25 -44 55 -73 65 -63 71 -93 26 -138 -44 -43 -75 -38 -153 24 -32 26 -38
36 -38 69 0 22 -7 52 -15 68 -17 33 -80 80 -107 80 -13 0 -18 8 -18 28 -1 66
-58 141 -122 157 -22 6 -26 14 -31 52 -6 58 -31 92 -90 122 -45 22 -47 25 -47
65 0 72 -58 137 -136 152 -48 9 -117 -26 -150 -75 -14 -23 -30 -41 -33 -41 -4
0 -21 15 -38 33 l-31 32 172 328 c95 180 177 332 182 337 13 13 107 22 123 12
9 -7 10 -15 3 -29 -6 -10 -43 -107 -83 -216 -82 -226 -82 -225 13 -247 95 -23
190 4 255 72 35 37 72 111 73 145 0 37 32 93 56 99 13 3 47 -1 78 -10 44 -13
70 -31 134 -91 80 -76 98 -85 120 -63 24 24 11 46 -71 125 -72 69 -93 83 -153
103 -83 28 -125 28 -166 -1 -32 -23 -78 -109 -78 -147 0 -28 -31 -91 -57 -114
-41 -37 -124 -58 -166 -42 -11 4 0 42 53 187 86 235 96 247 260 299 63 20 129
37 145 37 17 1 89 -15 160 -35z m-785 -791 c62 -42 56 -65 -58 -223 -120 -164
-145 -181 -201 -129 -38 35 -27 67 65 195 88 122 135 174 157 174 7 0 24 -8
37 -17z m149 -209 c18 -15 31 -35 31 -48 0 -23 -125 -208 -161 -238 -12 -10
-30 -18 -41 -18 -25 0 -78 52 -78 77 0 20 139 219 167 241 25 18 48 15 82 -14z
m155 -195 c14 -17 26 -36 26 -43 0 -16 -95 -155 -122 -178 -27 -24 -59 -23
-92 3 -41 32 -34 65 30 155 31 44 62 82 68 86 26 17 65 7 90 -23z m143 -181
c13 -12 23 -33 23 -47 0 -34 -68 -130 -98 -138 -35 -9 -74 8 -92 39 -13 25
-13 31 4 62 10 18 31 50 48 70 35 43 78 48 115 14z"/>
<path d="M659 2550 c-8 -5 -24 -27 -34 -49 -15 -34 -16 -43 -5 -56 20 -24 52
-14 77 24 27 40 28 54 7 75 -18 18 -23 19 -45 6z"/>
<path d="M527 2318 c-107 -198 -174 -324 -179 -340 -10 -24 14 -50 41 -46 24
3 45 38 196 326 44 83 53 108 44 123 -5 11 -20 19 -34 19 -20 0 -32 -14 -68
-82z"/>
</g>
</svg>
