<?xml version="1.0" standalone="no"?>
<!DOCTYPE svg PUBLIC "-//W3C//DTD SVG 20010904//EN"
 "http://www.w3.org/TR/2001/REC-SVG-20010904/DTD/svg10.dtd">
<svg version="1.0" xmlns="http://www.w3.org/2000/svg"
 width="344.000000pt" height="344.000000pt" viewBox="0 0 344.000000 344.000000"
 preserveAspectRatio="xMidYMid meet">

<g transform="translate(0.000000,344.000000) scale(0.100000,-0.100000)"
fill="#5472ae" stroke="none">
<path d="M496 3394 c-218 -53 -392 -227 -451 -453 -13 -53 -15 -216 -13 -1429
l3 -1369 28 -36 c16 -21 46 -46 67 -57 38 -20 61 -20 1104 -20 728 0 1074 3
1093 11 74 28 116 97 117 192 1 63 -1 71 -27 93 -60 51 -124 15 -135 -76 l-7
-55 -1040 0 -1040 0 -3 1208 -2 1207 227 0 c223 0 227 0 269 25 23 14 53 42
66 62 22 37 23 46 26 296 l3 257 747 -2 747 -3 5 -563 5 -564 28 -24 c36 -30
68 -30 104 0 l28 24 0 569 c0 312 -3 580 -8 595 -10 38 -65 98 -104 114 -49
21 -1752 19 -1837 -2z m122 -381 l-3 -238 -212 -3 -213 -2 0 42 c1 188 149
372 340 424 25 7 55 13 68 13 l22 1 -2 -237z"/>
<path d="M969 3011 c-34 -35 -37 -68 -8 -105 l20 -26 548 0 548 0 21 23 c22
23 28 60 16 92 -17 44 -34 45 -589 45 l-527 0 -29 -29z"/>
<path d="M371 2254 c-31 -39 -27 -77 10 -108 l31 -26 819 0 c870 0 865 0 883
45 13 34 6 72 -17 93 l-23 22 -841 0 -842 0 -20 -26z"/>
<path d="M2274 1900 c-243 -33 -449 -180 -555 -395 -55 -113 -73 -189 -73
-320 -1 -161 33 -275 121 -407 84 -128 213 -225 370 -281 83 -30 97 -32 228
-32 131 0 145 2 228 32 157 56 286 153 370 281 88 132 122 246 121 407 0 131
-18 207 -73 320 -134 271 -441 435 -737 395z m195 -271 c110 -25 217 -102 282
-201 52 -81 73 -165 67 -276 -4 -79 -9 -100 -41 -164 -122 -248 -425 -337
-657 -193 -62 39 -130 117 -168 193 -31 64 -36 85 -40 164 -11 230 119 412
338 474 55 15 160 17 219 3z"/>
<path d="M2292 1465 c-230 -64 -296 -346 -118 -502 143 -126 365 -81 453 91
22 41 27 65 27 127 1 65 -3 84 -29 134 -62 122 -204 186 -333 150z"/>
<path d="M375 1505 c-30 -29 -32 -74 -6 -106 l19 -24 546 -3 546 -2 25 24 c33
33 33 79 0 111 l-24 25 -541 0 -541 0 -24 -25z"/>
<path d="M375 755 c-16 -15 -25 -36 -25 -55 0 -19 9 -40 25 -55 l24 -25 541 0
541 0 24 25 c33 32 33 78 0 110 l-24 25 -541 0 -541 0 -24 -25z"/>
<path d="M3095 679 c-46 -70 -169 -191 -237 -234 -27 -17 -48 -33 -48 -36 0
-10 99 -140 139 -183 102 -109 273 -115 379 -13 95 91 108 247 29 351 -20 26
-207 177 -218 176 -2 0 -22 -28 -44 -61z"/>
</g>
</svg>
